 <svg  version="1.0" xmlns="http://www.w3.org/2000/svg"  width="900.000000pt" height="363.000000pt" viewBox="0 0 900.000000 363.000000"  preserveAspectRatio="xMidYMid meet">  <g transform="translate(0.000000,363.000000) scale(0.100000,-0.100000)" fill="#0c2588" stroke="none"> <path d="M2830 3024 c0 -11 16 -36 36 -58 47 -51 42 -69 -21 -77 -75 -10 -149 -25 -255 -53 -157 -42 -180 -50 -180 -63 0 -7 -12 -16 -27 -19 -16 -4 -37 -13 -48 -20 -11 -8 -27 -14 -36 -14 -10 0 -30 -6 -46 -14 -51 -25 -210 -97 -243 -110 -8 -3 -22 -10 -30 -15 -8 -5 -35 -19 -60 -31 -59 -29 -135 -74 -150 -90 -3 -3 -14 -10 -25 -17 -107 -64 -162 -98 -171 -107 -6 -6 -22 -18 -34 -26 -233 -157 -478 -403 -561 -562 -109 -208 -154 -395 -129 -536 24 -141 48 -201 116 -292 90 -120 219 -212 399 -285 72 -30 187 -61 305 -83 30 -6 75 -15 100 -21 25 -6 72 -10 105 -11 33 0 71 -3 85 -7 l25 -7 -23 -5 c-43 -11 -23 -26 45 -34 63 -8 188 -5 276 6 40 5 61 16 36 19 -8 0 -25 2 -39 4 -14 1 -46 9 -73 17 -27 9 -64 13 -87 10 -30 -4 -45 -1 -60 12 -15 14 -47 20 -133 27 -209 15 -270 31 -408 109 -98 56 -208 168 -235 239 -3 8 -10 22 -15 30 -13 22 -15 27 -33 110 -21 98 -20 167 3 271 24 105 33 131 89 249 94 201 246 388 487 600 91 80 375 280 398 280 6 0 18 6 26 14 9 7 50 32 91 55 69 38 103 55 285 142 33 16 68 29 76 29 9 0 22 7 29 15 7 8 22 15 34 15 12 0 31 7 42 15 10 8 29 15 40 15 12 0 27 6 33 14 17 20 70 31 84 17 7 -7 5 -30 -8 -76 -14 -52 -15 -69 -6 -78 12 -11 26 1 69 58 60 79 108 139 146 179 26 27 45 53 44 58 -5 14 -76 38 -113 38 -16 0 -41 7 -55 15 -14 8 -36 14 -50 15 -14 0 -34 6 -45 14 -11 7 -32 16 -47 19 -14 4 -33 10 -42 13 -11 4 -16 0 -16 -12z m-800 -548 c9 -12 4 -19 -28 -40 -22 -14 -43 -30 -47 -35 -3 -6 -32 -27 -63 -48 -31 -20 -73 -50 -92 -65 -200 -161 -300 -250 -300 -265 0 -7 -18 -26 -39 -41 -29 -19 -40 -35 -43 -57 -2 -24 -10 -32 -35 -40 -42 -14 -48 -21 -33 -40 11 -13 10 -19 -5 -35 -9 -10 -23 -16 -31 -13 -11 4 -13 -2 -8 -26 5 -23 1 -37 -18 -60 -14 -16 -33 -53 -42 -83 -10 -29 -24 -60 -31 -68 -7 -8 -20 -46 -29 -85 -9 -38 -24 -97 -32 -130 -11 -39 -16 -98 -16 -167 1 -59 -2 -110 -7 -112 -5 -3 2 -27 15 -53 13 -27 24 -61 24 -76 0 -16 12 -44 27 -63 17 -22 23 -38 16 -45 -15 -15 -100 48 -144 107 -21 29 -43 56 -49 59 -16 10 -59 108 -71 163 -17 70 -21 212 -8 257 36 127 91 259 128 305 15 19 34 46 41 60 32 61 281 328 357 382 17 13 56 41 85 64 29 23 69 50 88 60 19 10 48 29 63 41 15 12 43 26 62 32 18 5 49 20 67 34 40 30 159 96 174 97 6 0 17 -6 24 -14z"/> <path d="M1170 1606 c0 -8 5 -18 10 -21 6 -3 10 3 10 14 0 12 -4 21 -10 21 -5 0 -10 -6 -10 -14z"/> <path d="M663 2638 c-29 -34 -35 -57 -21 -94 17 -48 50 -58 196 -58 l125 -1 24 -44 c12 -24 23 -51 23 -60 0 -9 7 -25 15 -35 8 -11 15 -27 15 -36 0 -23 29 -80 41 -80 5 0 28 18 51 41 23 22 51 47 63 55 l23 15 -30 62 c-17 34 -37 75 -44 90 -8 16 -14 34 -14 40 0 26 -53 88 -90 107 -34 18 -59 20 -198 20 -152 0 -159 -1 -179 -22z"/> <path d="M1850 2611 c-8 -5 -35 -18 -60 -29 -139 -62 -313 -153 -341 -178 -8 -8 -19 -14 -22 -14 -7 0 -108 -68 -117 -79 -3 -3 -48 -40 -100 -83 -89 -72 -140 -122 -140 -140 0 -4 16 -8 36 -8 27 0 51 12 100 48 35 26 64 50 64 55 0 4 7 7 15 7 8 0 15 4 15 8 0 8 95 82 105 82 3 0 11 5 18 10 31 26 106 80 112 80 4 0 32 19 63 43 99 74 183 131 219 146 11 5 24 15 28 21 3 6 21 17 38 24 30 14 31 14 7 15 -14 0 -32 -4 -40 -8z"/> <path d="M8279 2322 c-25 -19 -81 -47 -112 -56 -25 -8 -17 -28 19 -45 60 -29 80 -40 111 -57 31 -18 32 -18 80 4 26 13 56 27 65 33 10 5 27 9 37 9 31 0 35 19 9 40 -34 28 -80 25 -131 -10 -45 -30 -81 -38 -92 -21 -7 13 21 39 61 56 40 17 46 49 12 59 -32 8 -33 8 -59 -12z"/> <path d="M2160 2295 c-14 -8 -35 -19 -47 -24 -13 -6 -23 -14 -23 -19 0 -4 -20 -21 -44 -36 -24 -15 -52 -35 -62 -44 -11 -10 -39 -33 -64 -52 -69 -53 -236 -218 -293 -290 -29 -36 -60 -74 -69 -84 -10 -11 -36 -51 -58 -90 -23 -39 -45 -78 -51 -86 -5 -8 -14 -25 -19 -38 -18 -43 -62 -137 -76 -164 -18 -33 -18 -53 0 -86 17 -34 46 -132 46 -159 0 -11 7 -26 15 -33 8 -7 15 -18 15 -25 0 -13 30 -36 85 -66 27 -14 95 -16 620 -16 l590 -1 28 26 c36 34 37 80 1 113 l-26 24 -559 -4 c-415 -2 -567 0 -588 9 -37 15 -68 88 -51 119 11 21 16 21 621 21 673 0 643 -3 693 63 15 19 26 42 26 53 1 10 7 30 15 44 8 14 14 35 15 46 0 12 7 35 15 50 8 16 15 38 15 50 0 11 7 29 15 40 8 10 15 29 15 42 0 13 5 33 12 45 6 12 15 35 19 52 4 16 13 46 20 65 6 19 17 51 24 70 7 19 18 51 25 70 6 19 16 51 20 70 9 39 25 87 46 138 20 46 18 56 -15 91 l-29 31 -449 0 c-372 0 -452 -3 -473 -15z m220 -97 c40 2 70 2 130 0 36 -1 147 -1 248 1 158 2 187 0 209 -14 24 -16 25 -21 19 -73 -4 -30 -13 -69 -20 -86 -13 -30 -30 -87 -56 -188 -7 -27 -17 -48 -21 -48 -5 0 -9 -5 -9 -12 0 -7 -9 -44 -21 -83 -57 -190 -73 -229 -105 -264 l-32 -36 -129 -6 c-121 -6 -263 6 -263 22 0 4 15 16 33 28 17 11 60 41 95 66 35 25 66 45 70 45 17 0 140 142 155 178 22 55 21 67 -7 127 -19 41 -50 73 -170 175 -81 69 -152 127 -158 129 -5 2 -43 -13 -84 -34 -40 -21 -80 -35 -89 -31 -8 3 -21 17 -27 32 -19 41 16 64 96 64 33 0 68 5 76 10 8 5 22 7 30 3 8 -3 22 -6 30 -5z m-253 -195 c43 -37 80 -70 83 -73 3 -3 38 -32 78 -63 88 -70 92 -90 30 -138 -61 -47 -178 -148 -209 -180 -39 -40 -63 -51 -93 -39 -21 8 -26 16 -26 44 0 32 8 41 103 115 56 44 111 87 122 95 18 13 18 15 -16 47 -20 19 -75 64 -122 101 -68 53 -87 73 -87 93 0 25 31 65 50 65 5 0 44 -30 87 -67z m210 55 c4 -7 37 -38 73 -68 35 -30 74 -64 86 -75 12 -11 47 -38 78 -60 65 -47 74 -81 30 -112 -39 -28 -147 -115 -169 -138 -68 -68 -107 -95 -135 -95 -23 0 -31 5 -36 26 -4 14 -3 33 2 43 8 17 79 81 177 159 23 19 43 38 45 43 4 10 -31 44 -103 101 -104 82 -125 107 -125 142 0 18 3 36 7 39 11 12 62 8 70 -5z m-397 -134 c29 -25 110 -139 110 -156 0 -4 -19 -26 -43 -50 -23 -24 -53 -64 -67 -89 -22 -43 -23 -50 -11 -87 8 -22 31 -58 52 -78 33 -32 47 -58 37 -66 -2 -1 -95 -5 -208 -8 -236 -7 -264 -12 -300 -54 -7 -9 -20 -16 -30 -16 -14 0 -17 8 -15 38 1 20 7 46 13 57 7 11 16 31 22 45 5 14 21 43 35 65 13 22 34 58 46 80 52 96 279 345 315 345 7 0 27 -12 44 -26z m287 -445 c33 -12 73 -48 73 -65 0 -15 -127 -34 -171 -25 -48 10 -45 31 9 68 55 37 52 36 89 22z"/> <path d="M8126 2202 c-8 -7 -8 -170 0 -198 3 -11 26 -31 52 -45 26 -13 61 -34 78 -46 17 -13 33 -20 36 -17 3 3 4 51 2 107 l-4 102 -37 25 c-21 13 -57 36 -80 51 -23 15 -44 25 -47 21z"/> <path d="M8473 2167 c-4 -7 -30 -24 -58 -38 -27 -13 -52 -24 -54 -26 -2 -1 -5 -31 -6 -67 -2 -36 -9 -81 -16 -101 -7 -19 -10 -38 -6 -42 4 -4 29 1 55 11 26 10 62 24 79 30 18 7 36 16 40 20 4 4 9 47 10 94 1 48 3 96 5 107 4 24 -36 34 -49 12z"/> <path d="M4961 2049 c-24 -52 -15 -87 29 -116 42 -29 82 -29 116 0 21 18 27 32 27 65 0 23 -8 53 -17 67 -15 22 -23 25 -77 25 l-60 0 -18 -41z"/> <path d="M5390 2059 c-60 -41 -83 -80 -95 -164 l-10 -70 -45 -5 c-41 -5 -45 -8 -48 -34 -7 -58 4 -75 51 -78 l42 -3 0 -65 c0 -36 -3 -137 -5 -225 l-5 -160 85 0 85 0 -4 229 c-3 171 -1 230 8 236 7 4 29 4 49 0 21 -3 72 -5 115 -3 l77 4 0 -171 c0 -179 5 -204 51 -249 53 -52 161 -67 247 -34 43 16 43 17 37 52 -13 70 -43 95 -84 70 -20 -13 -56 -7 -83 13 -15 11 -18 33 -19 161 0 82 1 151 4 154 3 2 34 0 69 -5 34 -5 66 -8 71 -5 4 2 7 31 7 64 l0 60 -75 -7 -75 -7 0 91 c0 50 -3 92 -7 94 -5 2 -38 2 -75 0 l-68 -4 0 -89 0 -89 -130 0 c-128 0 -130 0 -130 23 0 53 20 94 55 113 34 18 37 18 66 1 45 -25 68 -22 75 11 3 15 10 40 16 55 12 32 14 29 -31 50 -22 11 -59 17 -105 17 -62 -1 -77 -5 -116 -31z"/> <path d="M3555 2044 c-27 -9 -57 -20 -65 -25 -8 -5 -24 -13 -36 -18 -48 -21 -104 -121 -104 -186 0 -114 92 -194 270 -235 79 -18 131 -43 155 -74 30 -40 30 -41 5 -76 -50 -71 -231 -56 -346 28 -35 25 -54 28 -54 10 -1 -7 -11 -35 -24 -63 -25 -53 -21 -81 12 -91 9 -3 31 -11 47 -18 82 -35 108 -40 217 -44 114 -3 118 -2 180 28 69 35 93 56 120 109 24 47 24 142 1 184 -24 42 -72 86 -103 94 -14 3 -34 12 -45 19 -11 8 -28 14 -38 14 -11 0 -40 7 -66 15 -25 8 -58 17 -73 20 -80 15 -110 103 -52 151 27 22 36 24 114 21 82 -4 148 -21 172 -45 32 -32 65 9 83 103 6 28 3 31 -37 48 -24 9 -50 17 -58 17 -8 0 -33 7 -55 15 -52 18 -157 18 -220 -1z"/> <path d="M6350 2040 c-70 -19 -97 -32 -148 -68 -40 -29 -117 -129 -125 -162 -3 -14 -10 -43 -16 -65 -16 -60 -13 -172 5 -213 52 -122 89 -171 164 -218 74 -47 110 -57 209 -61 92 -4 135 4 191 38 8 5 22 12 30 16 8 4 29 20 45 35 17 15 33 28 38 28 18 0 3 28 -38 73 -47 51 -68 58 -85 27 -6 -11 -29 -32 -51 -46 -34 -21 -53 -25 -114 -26 -75 0 -99 9 -154 56 -67 59 -100 164 -80 256 18 84 61 138 144 180 75 38 186 18 245 -45 13 -14 33 -25 44 -24 22 0 96 80 96 103 0 27 -113 91 -211 120 -69 20 -106 19 -189 -4z"/> <path d="M7935 1911 l7 -90 -43 -3 -44 -3 0 -50 0 -50 40 0 40 0 0 -176 0 -175 28 -37 c40 -53 93 -77 169 -77 34 0 82 7 106 17 43 16 43 16 36 57 -12 73 -37 92 -78 61 -28 -21 -51 -19 -80 8 -24 21 -25 26 -28 169 -1 81 0 150 3 153 4 3 35 1 70 -4 76 -13 89 -5 89 54 0 57 -12 65 -88 56 -42 -5 -65 -4 -70 3 -4 6 -7 47 -7 91 l0 80 -79 3 -78 3 7 -90z m79 -150 c7 -10 -22 -37 -30 -28 -9 8 3 37 15 37 5 0 12 -4 15 -9z"/> <path d="M855 1864 c-137 -183 -189 -391 -152 -606 10 -54 18 -71 37 -84 14 -10 19 -11 13 -4 -21 23 -16 211 7 295 34 124 46 152 128 307 29 55 41 89 40 118 0 23 -5 40 -12 40 -6 0 -33 -30 -61 -66z"/> <path d="M3963 1828 c19 -79 27 -102 36 -111 6 -6 11 -20 11 -30 0 -10 6 -31 14 -45 15 -30 33 -81 46 -127 13 -48 31 -98 46 -128 8 -16 14 -40 14 -53 0 -14 7 -38 15 -54 15 -29 18 -30 85 -30 l69 0 21 46 c11 26 20 57 20 70 0 13 6 38 14 56 24 58 46 132 46 156 0 34 18 62 39 62 14 0 20 -10 25 -47 6 -47 19 -96 39 -143 5 -14 14 -43 18 -65 4 -22 13 -61 20 -87 l12 -48 73 0 c81 0 85 3 103 76 10 41 25 88 46 139 23 55 37 100 43 130 2 17 11 39 18 50 8 11 14 27 14 36 0 10 6 30 14 46 13 26 34 86 39 108 1 6 -28 11 -68 13 l-70 3 -17 -43 c-10 -24 -18 -49 -18 -57 0 -7 -7 -36 -16 -65 -9 -28 -22 -71 -30 -96 -8 -25 -14 -54 -14 -66 0 -30 -29 -84 -46 -84 -13 0 -18 12 -28 75 -6 43 -25 113 -35 133 -17 36 -41 121 -41 149 0 43 -17 53 -87 53 -70 0 -80 -9 -94 -85 -8 -39 -27 -107 -48 -170 -5 -16 -15 -50 -21 -75 -21 -79 -29 -93 -44 -81 -14 11 -16 20 -34 111 -8 42 -20 86 -44 155 -6 17 -13 49 -17 72 -12 65 -23 73 -103 73 -68 0 -70 -1 -65 -22z"/> <path d="M4975 1840 c-2 -3 -5 -136 -6 -295 l-2 -290 76 -3 77 -3 -2 298 -3 297 -68 1 c-38 0 -70 -2 -72 -5z"/> <path d="M6930 1833 c-77 -27 -110 -42 -110 -53 0 -5 9 -27 20 -47 11 -21 20 -43 20 -50 0 -17 30 -17 55 0 27 19 113 47 142 47 64 0 139 -70 131 -123 -3 -20 -8 -21 -138 -22 -121 -1 -139 -4 -172 -24 -54 -32 -78 -77 -78 -142 0 -104 78 -169 202 -169 66 0 105 17 150 64 29 32 34 28 40 -29 3 -30 3 -30 76 -33 l72 -3 0 193 c0 165 -3 202 -19 248 -39 111 -119 160 -260 159 -50 0 -105 -7 -131 -16z m241 -323 c22 -13 24 -41 5 -78 -21 -41 -47 -60 -94 -70 -82 -19 -153 24 -138 83 9 36 46 56 123 64 37 5 72 9 76 10 5 0 17 -4 28 -9z"/> <path d="M7465 1838 c-3 -7 -4 -141 -3 -298 l3 -285 85 0 85 0 -4 172 c-3 147 -1 176 13 197 32 50 68 74 118 81 54 8 62 20 56 96 -3 43 -4 44 -39 47 -23 2 -40 -2 -49 -12 -7 -9 -17 -16 -22 -16 -5 0 -25 -16 -45 -35 -20 -19 -39 -32 -42 -29 -3 3 -6 25 -6 47 l0 42 -73 3 c-52 2 -74 -1 -77 -10z"/> <path d="M1652 899 c-33 -21 -72 -84 -72 -115 0 -25 31 -87 54 -107 28 -23 83 -47 110 -47 30 0 94 41 116 76 41 62 11 162 -60 199 -42 22 -109 19 -148 -6z m98 -114 c10 -12 9 -16 -5 -21 -19 -8 -40 9 -31 25 10 15 21 14 36 -4z"/> <path d="M2425 904 c-51 -26 -70 -61 -70 -129 0 -70 19 -101 80 -134 49 -26 75 -26 120 -2 59 32 80 67 80 136 0 66 -18 100 -67 129 -33 20 -103 20 -143 0z"/> </g> </svg> 